# xmcd
#
# Track frame offsets:
#	150
#	33979
#	47795
#	63546
#	82012
#	96683
#	108758
#	124514
#	148650
#	172025
#	183713
#	205692
#	220200
#	236333
#	251502
#
# Disc length: 3562 seconds
#
# Revision: 0
# Processed by: cddbd v1.5.2PL0 Copyright (c) Steve Scherf et al.
# Submitted via: dBpowerAMP V4.0
#
DISCID=db0de80f
DTITLE=Various Artist - Low Down Blues
DYEAR=1999
DGENRE=Blues
TTITLE0=Drowning On Dry Land - Eastwood Revue
TTITLE1=Screaming All Night Long - Gene Vell
TTITLE2=Down And Out - Calvin 'Loudmouth' Johnson
TTITLE3=Alone In My Bedroom - Calvin 'Loudmouth' Johnson
TTITLE4=Worried Blues - Smokey Hogg
TTITLE5=I Used To Be Rich - Smokey Hogg
TTITLE6=Pneumonia Blues - Johnny Winter
TTITLE7=When I'm Dead - Billy Bizer
TTITLE8=I'm Doin' Bad - Peppermint Harris
TTITLE9=Low Life - Buddy and Babe
TTITLE10=Life's Highway - Juke Boy Bonner
TTITLE11=Live My Troubles On Down - Juke Boy Bonner
TTITLE12=Lonesome Life - Lightnin' Hopkins
TTITLE13=Walking and Walking - Lightnin' Hopkins
TTITLE14=Ghetto Child - Johnny Copeland
EXTD=
EXTT0=
EXTT1=
EXTT2=
EXTT3=
EXTT4=
EXTT5=
EXTT6=
EXTT7=
EXTT8=
EXTT9=
EXTT10=
EXTT11=
EXTT12=
EXTT13=
EXTT14=
PLAYORDER=
